{
    "asset" : {
        "generator" : "Khronos glTF Blender I/O v1.7.33",
        "version" : "2.0"
    },
    "scene" : 0,
    "scenes" : [
        {
            "name" : "Scene",
            "nodes" : [
                0
            ]
        }
    ],
    "nodes" : [
        {
            "mesh" : 0,
            "name" : "kumihimo-disk-big"
        }
    ],
    "meshes" : [
        {
            "name" : "kumihimo-disk-big",
            "primitives" : [
                {
                    "attributes" : {
                        "POSITION" : 0,
                        "NORMAL" : 1
                    },
                    "indices" : 2
                }
            ]
        }
    ],
    "accessors" : [
        {
            "bufferView" : 0,
            "componentType" : 5126,
            "count" : 22015,
            "max" : [
                59.994972229003906,
                1.0000052452087402,
                59.99530029296875
            ],
            "min" : [
                -59.99565887451172,
                -0.999994695186615,
                -59.995330810546875
            ],
            "type" : "VEC3"
        },
        {
            "bufferView" : 1,
            "componentType" : 5126,
            "count" : 22015,
            "type" : "VEC3"
        },
        {
            "bufferView" : 2,
            "componentType" : 5123,
            "count" : 26664,
            "type" : "SCALAR"
        }
    ],
    "bufferViews" : [
        {
            "buffer" : 0,
            "byteLength" : 264180,
            "byteOffset" : 0
        },
        {
            "buffer" : 0,
            "byteLength" : 264180,
            "byteOffset" : 264180
        },
        {
            "buffer" : 0,
            "byteLength" : 53328,
            "byteOffset" : 528360
        }
    ],
    "buffers" : [
        {
            "byteLength" : 581688,
            "uri" : "data:application/octet-stream;base64,"
        }
    ]
}
